<?xml version="1.0" encoding="UTF-8" standalone="no"?>
<!-- Generator: Adobe Illustrator 21.0.0, SVG Export Plug-In . SVG Version: 6.00 Build 0)  -->

<svg
   xmlns:dc="http://purl.org/dc/elements/1.1/"
   xmlns:cc="http://creativecommons.org/ns#"
   xmlns:rdf="http://www.w3.org/1999/02/22-rdf-syntax-ns#"
   xmlns:svg="http://www.w3.org/2000/svg"
   xmlns="http://www.w3.org/2000/svg"
   xmlns:sodipodi="http://sodipodi.sourceforge.net/DTD/sodipodi-0.dtd"
   xmlns:inkscape="http://www.inkscape.org/namespaces/inkscape"
   version="1.1"
   x="0px"
   y="0px"
   viewBox="0 0 799 600"
   style="enable-background:new 0 0 799 600;"
   xml:space="preserve"
   id="svg345"
   sodipodi:docname="cancoillotte.logo.svg"
   inkscape:export-filename="/home/emile/Downloads/cancoillotte.logo.png"
   inkscape:export-xdpi="200"
   inkscape:export-ydpi="200"
   inkscape:version="0.92.2 5c3e80d, 2017-08-06"><metadata
     id="metadata351"><rdf:RDF><cc:Work
         rdf:about=""><dc:format>image/svg+xml</dc:format><dc:type
           rdf:resource="http://purl.org/dc/dcmitype/StillImage" /></cc:Work></rdf:RDF></metadata><defs
     id="defs349" /><sodipodi:namedview
     pagecolor="#ffffff"
     bordercolor="#666666"
     borderopacity="1"
     objecttolerance="10"
     gridtolerance="10"
     guidetolerance="10"
     inkscape:pageopacity="0"
     inkscape:pageshadow="2"
     inkscape:window-width="1920"
     inkscape:window-height="1023"
     id="namedview347"
     showgrid="false"
     inkscape:zoom="1.1914894"
     inkscape:cx="308.06145"
     inkscape:cy="259.11769"
     inkscape:window-x="0"
     inkscape:window-y="28"
     inkscape:window-maximized="1"
     inkscape:current-layer="svg345" /><style
     type="text/css"
     id="style2">
	.st0{fill:#FFFFFF;}
	.st1{fill:#7D6937;}
	.st2{fill:#F3EDD7;}
	.st3{fill:#DDD9CA;}
	.st4{fill:#C0BAA6;}
	.st5{fill:#FFF3C2;}
	.st6{fill:#FFFAE6;}
	.st7{fill:#665E57;}
	.st8{fill:#44403C;}
	.st9{fill:#EAEAEA;}
	.st10{fill:#37ABC8;}
	.st11{fill:#077E91;}
	.st12{fill:#F6D2A2;}
	.st13{fill:#DB8528;}
	.st14{fill:#776F67;}
	.st15{fill:#FFCC66;}
	.st16{fill:#FF8833;}
	.st17{fill:#666666;}
	.st18{fill:#8C0000;}
	.st19{fill:#595959;}
	.st20{fill:#960000;}
	.st21{fill:#353535;}
	.st22{fill:#5E0202;}
	.st23{fill:#E5DAAC;}
	.st24{fill:#5B5A59;}
	.st25{fill:#EF9325;}
	.st26{fill:#E5E5E5;}
</style><g
     id="Layer_1"><g
       id="g153"><path
         class="st1"
         d="M417.7,352.3c6.8,38.7,12.3,70.1-176.5,103.1C64.8,486.2,46.9,457,40.1,418.3s72.3-84.9,176.5-103.1    S410.9,313.5,417.7,352.3z"
         id="path7" /><path
         class="st1"
         d="M418.4,361.3c6.8,38.7,18.9,84-169.9,117c-176.3,30.8-183,12.6-203.8-42.6c-13.9-36.8,75-79.3,179.3-97.6    C328.3,319.9,411.7,322.6,418.4,361.3z"
         id="path9" /><path
         class="st2"
         d="M409.3,354.3c6.5,37.2,11.8,67.4-170.9,99.4c-170.7,29.8-188,1.8-194.5-35.4s70-81.7,170.9-99.4    S402.8,317.1,409.3,354.3z"
         id="path11" /><g
         id="g17"><path
           class="st3"
           d="M64.5,422.8c-3.6,1.3-7.7,0.5-9.3-1.9s0.1-5.4,3.6-6.7c3.6-1.3,7.7-0.5,9.3,1.9     C69.7,418.5,68,421.5,64.5,422.8z"
           id="path13" /><path
           class="st4"
           d="M64.5,422.8c6.3-5.4-1-9.8-7.9-7.3c0,0,1.4-0.9,2.3-1.3c3.6-1.3,7.7-0.5,9.3,1.9c1.3,2,0.4,4.4-2.1,5.9     C65.6,422.4,64.5,422.8,64.5,422.8z"
           id="path15" /></g><g
         id="g23"><path
           class="st3"
           d="M92.8,414.6c-5.3,2-11.4,0.7-13.7-2.7c-2.3-3.5,0.1-7.9,5.4-9.9c5.3-2,11.4-0.7,13.7,2.7     C100.5,408.2,98.1,412.6,92.8,414.6z"
           id="path19" /><path
           class="st4"
           d="M92.8,414.6c9.3-8-1.5-14.5-11.7-10.7c0,0,2.1-1.4,3.4-1.9c5.3-2,11.4-0.7,13.7,2.7c1.9,2.9,0.5,6.5-3,8.7     C94.4,413.9,92.8,414.6,92.8,414.6z"
           id="path21" /></g><g
         id="g29"><path
           class="st3"
           d="M206.1,442.4c-1.8,0.7-3.9,0.3-4.6-0.9c-0.8-1.2,0-2.7,1.8-3.3c1.8-0.7,3.9-0.3,4.6,0.9     C208.6,440.3,207.8,441.8,206.1,442.4z"
           id="path25" /><path
           class="st4"
           d="M206.1,442.4c3.2-2.7-0.5-4.9-4-3.6c0,0,0.7-0.5,1.1-0.6c1.8-0.7,3.9-0.3,4.6,0.9c0.6,1,0.2,2.2-1,3     C206.6,442.2,206.1,442.4,206.1,442.4z"
           id="path27" /></g><g
         id="g35"><path
           class="st3"
           d="M132.1,450.3c-3.6,1.3-7.7,0.5-9.3-1.9s0.1-5.4,3.6-6.7c3.6-1.3,7.7-0.5,9.3,1.9S135.7,449,132.1,450.3z"
           id="path31" /><path
           class="st4"
           d="M132.1,450.3c6.3-5.4-1-9.8-7.9-7.3c0,0,1.4-0.9,2.3-1.3c3.6-1.3,7.7-0.5,9.3,1.9c1.3,2,0.4,4.4-2.1,5.9     C133.3,449.8,132.1,450.3,132.1,450.3z"
           id="path33" /></g><g
         id="g41"><path
           class="st3"
           d="M200.9,449c-2.2,0.8-4.9,0.3-5.8-1.2c-1-1.5,0.1-3.4,2.3-4.2c2.2-0.8,4.9-0.3,5.8,1.2     C204.2,446.3,203.1,448.2,200.9,449z"
           id="path37" /><path
           class="st4"
           d="M200.9,449c4-3.4-0.7-6.2-5-4.6c0,0,0.9-0.6,1.4-0.8c2.2-0.8,4.9-0.3,5.8,1.2c0.8,1.2,0.2,2.8-1.3,3.7     C201.6,448.7,200.9,449,200.9,449z"
           id="path39" /></g><g
         id="g47"><path
           class="st3"
           d="M141.2,456.7c-2.5,0.9-5.3,0.4-6.4-1.3c-1.1-1.6,0.1-3.7,2.5-4.6c2.5-0.9,5.3-0.4,6.4,1.3     C144.8,453.7,143.6,455.8,141.2,456.7z"
           id="path43" /><path
           class="st4"
           d="M141.2,456.7c4.4-3.7-0.7-6.7-5.4-5c0,0,1-0.6,1.6-0.9c2.5-0.9,5.3-0.4,6.4,1.3c0.9,1.4,0.3,3-1.4,4.1     C141.9,456.4,141.2,456.7,141.2,456.7z"
           id="path45" /></g><g
         id="g53"><path
           class="st3"
           d="M245.6,440.9c-3.6,1.3-7.7,0.5-9.3-1.9c-1.6-2.4,0.1-5.4,3.6-6.7s7.7-0.5,9.3,1.9S249.2,439.5,245.6,440.9z"
           id="path49" /><path
           class="st4"
           d="M245.6,440.9c6.3-5.4-1-9.8-7.9-7.3c0,0,1.4-0.9,2.3-1.3c3.6-1.3,7.7-0.5,9.3,1.9c1.3,2,0.4,4.4-2.1,5.9     C246.7,440.4,245.6,440.9,245.6,440.9z"
           id="path51" /></g><g
         id="g59"><path
           class="st3"
           d="M68.8,443.6c-2.2,0.8-4.9,0.3-5.8-1.2c-1-1.5,0.1-3.4,2.3-4.2c2.2-0.8,4.9-0.3,5.8,1.2     C72.1,440.8,71.1,442.7,68.8,443.6z"
           id="path55" /><path
           class="st4"
           d="M68.8,443.6c4-3.4-0.7-6.2-5-4.6c0,0,0.9-0.6,1.4-0.8c2.2-0.8,4.9-0.3,5.8,1.2c0.8,1.2,0.2,2.8-1.3,3.7     C69.5,443.3,68.8,443.6,68.8,443.6z"
           id="path57" /></g><g
         id="g65"><path
           class="st3"
           d="M182.4,454.1c-4.7,1.8-10.3,0.7-12.3-2.5s0.1-7.1,4.9-8.9s10.3-0.7,12.3,2.5     C189.3,448.3,187.1,452.3,182.4,454.1z"
           id="path61" /><path
           class="st4"
           d="M182.4,454.1c8.4-7.2-1.4-13.1-10.5-9.7c0,0,1.9-1.3,3-1.7c4.7-1.8,10.3-0.7,12.3,2.5     c1.7,2.6,0.5,5.9-2.7,7.9C183.9,453.4,182.4,454.1,182.4,454.1z"
           id="path63" /></g><g
         id="g71"><path
           class="st3"
           d="M66.3,399.9c-1.8,0.7-3.9,0.3-4.6-0.9c-0.8-1.2,0-2.7,1.8-3.3c1.8-0.7,3.9-0.3,4.6,0.9     S68.1,399.2,66.3,399.9z"
           id="path67" /><path
           class="st4"
           d="M66.3,399.9c3.2-2.7-0.5-4.9-4-3.6c0,0,0.7-0.5,1.1-0.6c1.8-0.7,3.9-0.3,4.6,0.9c0.6,1,0.2,2.2-1,3     C66.9,399.6,66.3,399.9,66.3,399.9z"
           id="path69" /></g><g
         id="g77"><path
           class="st3"
           d="M90.1,376.7c-0.6,0.2-1.3,0.1-1.5-0.3c-0.3-0.4,0-0.9,0.6-1.1s1.3-0.1,1.5,0.3     C90.9,376,90.6,376.5,90.1,376.7z"
           id="path73" /><path
           class="st4"
           d="M90.1,376.7c1-0.9-0.2-1.6-1.3-1.2c0,0,0.2-0.2,0.4-0.2c0.6-0.2,1.3-0.1,1.5,0.3c0.2,0.3,0.1,0.7-0.3,1     C90.2,376.6,90.1,376.7,90.1,376.7z"
           id="path75" /></g><g
         id="g83"><path
           class="st3"
           d="M74.6,389.3c-2.1,0.8-4.6,0.3-5.5-1.1s0-3.2,2.2-4c2.1-0.8,4.6-0.3,5.5,1.1S76.7,388.5,74.6,389.3z"
           id="path79" /><path
           class="st4"
           d="M74.6,389.3c3.8-3.2-0.6-5.8-4.7-4.3c0,0,0.8-0.6,1.4-0.8c2.1-0.8,4.6-0.3,5.5,1.1c0.8,1.2,0.2,2.6-1.2,3.5     C75.3,389,74.6,389.3,74.6,389.3z"
           id="path81" /></g><g
         id="g89"><path
           class="st3"
           d="M95.9,453c-0.5,0.2-1.2,0.1-1.4-0.3s0-0.8,0.6-1c0.5-0.2,1.2-0.1,1.4,0.3C96.7,452.4,96.4,452.8,95.9,453z"
           id="path85" /><path
           class="st4"
           d="M95.9,453c1-0.8-0.2-1.5-1.2-1.1c0,0,0.2-0.1,0.3-0.2c0.5-0.2,1.2-0.1,1.4,0.3c0.2,0.3,0.1,0.7-0.3,0.9     C96,453,95.9,453,95.9,453z"
           id="path87" /></g><g
         id="g95"><path
           class="st3"
           d="M102.7,450.2c-0.8,0.3-1.8,0.1-2.2-0.4c-0.4-0.5,0-1.2,0.8-1.6s1.8-0.1,2.2,0.4     C103.9,449.2,103.5,449.9,102.7,450.2z"
           id="path91" /><path
           class="st4"
           d="M102.7,450.2c1.5-1.3-0.2-2.3-1.8-1.7c0,0,0.3-0.2,0.5-0.3c0.8-0.3,1.8-0.1,2.2,0.4c0.3,0.5,0.1,1-0.5,1.4     C102.9,450.1,102.7,450.2,102.7,450.2z"
           id="path93" /></g><g
         id="g101"><path
           class="st3"
           d="M79.6,434.1c-2,0.7-4.2,0.3-5.1-1c-0.9-1.3,0-2.9,2-3.7c2-0.7,4.2-0.3,5.1,1     C82.5,431.7,81.6,433.4,79.6,434.1z"
           id="path97" /><path
           class="st4"
           d="M79.6,434.1c3.5-3-0.6-5.4-4.4-4c0,0,0.8-0.5,1.3-0.7c2-0.7,4.2-0.3,5.1,1c0.7,1.1,0.2,2.4-1.1,3.3     C80.2,433.8,79.6,434.1,79.6,434.1z"
           id="path99" /></g><g
         id="g107"><path
           class="st3"
           d="M228.7,452.1c-0.8,0.3-1.8,0.1-2.2-0.4c-0.4-0.5,0-1.2,0.8-1.6c0.8-0.3,1.8-0.1,2.2,0.4     S229.5,451.8,228.7,452.1z"
           id="path103" /><path
           class="st4"
           d="M228.7,452.1c1.5-1.3-0.2-2.3-1.8-1.7c0,0,0.3-0.2,0.5-0.3c0.8-0.3,1.8-0.1,2.2,0.4c0.3,0.5,0.1,1-0.5,1.4     C228.9,452,228.7,452.1,228.7,452.1z"
           id="path105" /></g><g
         id="g113"><path
           class="st3"
           d="M150.2,351.1c-3.6,1.3-7.7,0.5-9.3-1.9c-1.6-2.4,0.1-5.4,3.6-6.7s7.7-0.5,9.3,1.9     C155.4,346.8,153.8,349.8,150.2,351.1z"
           id="path109" /><path
           class="st4"
           d="M150.2,351.1c6.3-5.4-1-9.8-7.9-7.3c0,0,1.4-0.9,2.3-1.3c3.6-1.3,7.7-0.5,9.3,1.9c1.3,2,0.4,4.4-2.1,5.9     C151.3,350.6,150.2,351.1,150.2,351.1z"
           id="path111" /></g><g
         id="g119"><path
           class="st3"
           d="M132.8,351.7c-1.6,0.6-3.4,0.2-4.1-0.8s0-2.3,1.6-2.9c1.6-0.6,3.4-0.2,4.1,0.8S134.3,351.1,132.8,351.7z"
           id="path115" /><path
           class="st4"
           d="M132.8,351.7c2.8-2.4-0.5-4.3-3.5-3.2c0,0,0.6-0.4,1-0.6c1.6-0.6,3.4-0.2,4.1,0.8c0.6,0.9,0.2,1.9-0.9,2.6     C133.3,351.5,132.8,351.7,132.8,351.7z"
           id="path117" /></g><g
         id="g125"><path
           class="st3"
           d="M166,339.4c-2.2,0.8-4.9,0.3-5.8-1.2c-1-1.5,0.1-3.4,2.3-4.2c2.2-0.8,4.9-0.3,5.8,1.2S168.3,338.6,166,339.4     z"
           id="path121" /><path
           class="st4"
           d="M166,339.4c4-3.4-0.7-6.2-5-4.6c0,0,0.9-0.6,1.4-0.8c2.2-0.8,4.9-0.3,5.8,1.2c0.8,1.2,0.2,2.8-1.3,3.7     C166.7,339.1,166,339.4,166,339.4z"
           id="path123" /></g><g
         id="g131"><path
           class="st3"
           d="M213.5,332.4c-2.2,0.8-4.9,0.3-5.8-1.2c-1-1.5,0.1-3.4,2.3-4.2c2.2-0.8,4.9-0.3,5.8,1.2     C216.8,329.6,215.7,331.5,213.5,332.4z"
           id="path127" /><path
           class="st4"
           d="M213.5,332.4c4-3.4-0.7-6.2-5-4.6c0,0,0.9-0.6,1.4-0.8c2.2-0.8,4.9-0.3,5.8,1.2c0.8,1.2,0.2,2.8-1.3,3.7     C214.2,332.1,213.5,332.4,213.5,332.4z"
           id="path129" /></g><g
         id="g137"><path
           class="st3"
           d="M182.2,335.6c-0.8,0.3-1.8,0.1-2.2-0.4c-0.4-0.5,0-1.2,0.8-1.6c0.8-0.3,1.8-0.1,2.2,0.4     C183.5,334.6,183.1,335.3,182.2,335.6z"
           id="path133" /><path
           class="st4"
           d="M182.2,335.6c1.5-1.3-0.2-2.3-1.8-1.7c0,0,0.3-0.2,0.5-0.3c0.8-0.3,1.8-0.1,2.2,0.4c0.3,0.5,0.1,1-0.5,1.4     C182.5,335.5,182.2,335.6,182.2,335.6z"
           id="path135" /></g><g
         id="g143"><path
           class="st3"
           d="M187.4,332c-0.5,0.2-1.2,0.1-1.4-0.3s0-0.8,0.6-1c0.5-0.2,1.2-0.1,1.4,0.3C188.2,331.3,188,331.8,187.4,332z     "
           id="path139" /><path
           class="st4"
           d="M187.4,332c1-0.8-0.2-1.5-1.2-1.1c0,0,0.2-0.1,0.3-0.2c0.5-0.2,1.2-0.1,1.4,0.3c0.2,0.3,0.1,0.7-0.3,0.9     C187.6,331.9,187.4,332,187.4,332z"
           id="path141" /></g><g
         id="g147"><path
           class="st5"
           d="M79.7,394.8c9-19.3,24.1-42,41.5-40c26.2,3,57.7-18.3,86.8-23c29.2-4.7,41,12.8,56.3,3.5     c15.3-9.2,74.8-23.2,91.6-8.1s32.2,17.4,32.1,35.9c-0.1,18.4,4.6,20.9-9.4,32.3c-14,11.4-52.7,27.8-92.7,34s-57.7,6.8-97.6,5.8     c-39.9-1-51,18.8-78.9,7s-14.2-21.5-21.1-26C81.4,411.8,79.7,394.8,79.7,394.8z"
           id="path145" /></g><g
         id="g151"><path
           class="st6"
           d="M355.9,327.2c16.8,15.1,32.2,17.4,32.1,35.9c-0.1,18.4,4.6,20.9-9.4,32.3c-14,11.4-52.7,27.8-92.7,34     s-57.7,6.8-97.6,5.8c-39.9-1-51,18.8-78.9,7s-14.2-21.5-21.1-26c-1.8-1.2-4-4.1-4.9-6.6c-3.2-8.4-3.7-14.8-3.7-14.8     c2.5,8.3,4.5,10.6,7.2,14.1c2.4,3.2,4.2,2.5,6.6,6.1c2.1,3.2,1.9,8.4,3.6,11.3c2.7,4.5,7.3,6,9.9,6.5c5.8,1,10.3,4.7,17.6,5.3     c14.9,1.2,32.9-5.5,52-6.2c20.7-0.7,42.8,0.6,64.5-2.1C329.4,418.9,410.9,387.2,355.9,327.2z"
           id="path149" /></g></g><g
       id="g159"><g
         id="g157"><path
           class="st7"
           d="M588.7,390c0,61.3,0,111-142.2,111s-142.2-49.7-142.2-111c0,0,63.9,25.7,142.5,25.7S588.7,390,588.7,390z"
           id="path155" /></g></g><g
       id="g163"><ellipse
         class="st8"
         cx="447.5"
         cy="192"
         rx="263.5"
         ry="115"
         id="ellipse161" /></g><g
       id="g169"><g
         id="g167"><path
           class="st5"
           d="M447.5,307c125.9,0,231.1-38.5,257.2-90c-26.2-51.5-131.4-90-257.2-90s-231.1,38.5-257.2,90     C216.4,268.5,321.6,307,447.5,307z"
           id="path165" /></g></g><g
       id="g201"><ellipse
         class="st9"
         cx="526.1"
         cy="128.2"
         rx="30.4"
         ry="30.9"
         id="ellipse171" /><path
         class="st10"
         d="M710,127.7c37.1-49.9-21.5-41.2-45,4.5L710,127.7z"
         id="path173" /><path
         class="st10"
         d="M634.6,95.3c7.6-48.9-29.3-21-29.1,20L634.6,95.3z"
         id="path175" /><path
         class="st11"
         d="M698.5,129.4c35.2-43.8-10.9-29.5-35.2,9.3L698.5,129.4z"
         id="path177" /><path
         class="st11"
         d="M622.9,105.2c17.8-52.8-15.5-21.6-25.7,22.5L622.9,105.2z"
         id="path179" /><path
         class="st12"
         d="M475.4,209.3c13.4,11.6,34.9-0.7,38.7-3.4c3.8-2.7-19.5-1.9-27.2-11c-9.5-11.2-16-19-22.1-14.7    C458.9,184.5,465.2,200.4,475.4,209.3z"
         id="path181" /><path
         class="st10"
         d="M671.6,331.2c-36.1,48.7-124,35.7-156.1-12c-44.6-66.2-16.9-131.6-6.5-155.4c10.4-23.8,24.4-67.7,59.7-74.5    c40.5-7.8,126.8,5.9,142.4,42.7s0.3,64.2-14.2,88.8C651.7,297.8,707.9,282.3,671.6,331.2z"
         id="path183" /><ellipse
         class="st9"
         cx="597.2"
         cy="141.2"
         rx="36.1"
         ry="35.2"
         id="ellipse185" /><path
         d="M521.8,140.3c-0.4,5.1,5.3,9.6,12.8,10.1c7.4,0.5,13.7-3.2,14.1-8.3c0.4-5.1-5.3-9.6-12.8-10.1    C528.5,131.5,522.1,135.2,521.8,140.3z"
         id="path187" /><path
         class="st0"
         d="M515.1,162.6c-1.7,5.5-4.9,11.3-5.6,17.5c0.6,3.1,3.4,4.2,5.5,6c3.5,0.5,7-0.9,9.3-3.6    c2.9-6.4,3.7-13.3,5.6-20.1L515.1,162.6z"
         id="path189" /><path
         class="st0"
         d="M544.5,170.5c1.2,11.9-12.2,31-19.6,11.8c2.9-6.4,3.7-13.3,5.6-20.1L544.5,170.5z"
         id="path191" /><path
         class="st12"
         d="M534.5,150.4c5.6-0.4,10.5-3.2,14.1-2.8c16.7,1.9,13.1,26.3,0,27.4c-15.4,1.3-12.1-6-22.6-7.8    c-4-0.7-11.1,3.8-15.5-3.1c-4.8-7.4,1.3-18.3,6.6-19.3C523.5,143.5,528.9,150.8,534.5,150.4z"
         id="path193" /><path
         d="M569.8,133.2c-2.6,5.9-0.4,12.4,4.9,14.6c5.3,2.2,11.6-0.8,14.2-6.6c2.6-5.9,0.4-12.4-4.9-14.6    C578.7,124.3,572.4,127.3,569.8,133.2z"
         id="path195" /><path
         d="M498.3,116.7c-1.5,5,0.6,10.1,4.7,11.3s8.7-1.9,10.2-7c1.5-5-0.6-10.1-4.7-11.3C504.4,108.5,499.8,111.7,498.3,116.7z"
         id="path197" /><path
         class="st12"
         d="M618.9,246.9c9.1,11.7,29.4,34,35.7,30c6.1-3.9-3.8-23.1-14.7-34.6"
         id="path199" /></g><g
       id="g205"><path
         class="st5"
         d="M645.2,252.3c-96,13.6-177.3,0.8-181.4-28.5c-0.7-5,0.9-10.2,4.5-15.5C404.3,225.1,360.8,251,364,273.5    c4.1,29.3,85.4,42.1,181.4,28.5c79.5-11.2,144.3-37,161.9-62.2C688.2,244.9,667.3,249.2,645.2,252.3z"
         id="path203" /></g><path
       class="st13"
       d="M347.3,280.6c0,0-20,30.6-19.2,39.2s8.4,2.3,10.3,15.7s-3.8,11.5-6,18.4c-2.1,6.9-0.8,38-0.8,38   s3.5,5.5,13.2,9.7c9.7,4.2,24.7,5.6,37.3,3.7c12.6-1.9,21.4-5.6,23.5-7.4c2.1-1.7,5.4-6.9,6.4-10.7c1-3.8,8.4-37.9,6.4-55.3   c-2.1-17.3-14.3-39.6-14.3-39.6L347.3,280.6z"
       id="path207" /><g
       id="g211"><path
         class="st14"
         d="M447.5,307c-142.4,0-258.4-49.3-263.3-110.9c-0.1-0.1-0.2-0.1-0.2-0.1c0,155.2,61,281,263.5,281    S711,351.2,711,196c0,0-0.1,0-0.2,0.1C705.9,257.7,589.9,307,447.5,307z"
         id="path209" /></g><g
       id="g228"><g
         id="Body_8_"><g
           id="g215"><path
             class="st15"
             d="M426,186c0,0-4-2-4-4c0-4,4-2,8-8c0,0-2-14-16-14c-12,0-16,10-16,16c0,10,6,10,6,16c0,2-2,4-8,4      c-10,0-14-10-14-10s-6,4-6,14c0,12,8,24,26,24h10c6,0,18-8,18-18s-6-10-6-14S426,186,426,186z"
             id="path213" /></g></g><g
         id="Beak"><g
           id="g220"><path
             class="st16"
             d="M436,176c-4,0-6-2-6-2c-4,6-8,4-8,8c0,2,4,4,4,4c4,0,14-6,14-8S438,176,436,176z"
             id="path218" /></g></g><g
         id="Eye"><g
           id="g225"><circle
             class="st17"
             cx="424"
             cy="172"
             r="2"
             id="circle223" /></g></g></g><g
       id="g232"><path
         class="st5"
         d="M438.6,213.7c-39.5,5.6-72.9,0.7-74.5-10.8c-0.3-2,0.4-4,1.9-6.1c-26.4,6.8-44.3,17.1-43.1,26    c1.6,11.5,35,16.4,74.5,10.8c32.7-4.6,59.4-14.9,66.7-24.9C456.3,210.7,447.7,212.4,438.6,213.7z"
         id="path230" /></g><g
       id="g260"><g
         id="g242"><g
           id="g238"><path
             class="st18"
             d="M618.9,462.2c-2.1,2-3.7,6-2.5,8.6l1.4,3c1.2,2.6,4.3,3.9,7,3l61.7-22.2c2.7-1,3.9-3.9,2.7-6.5l-1.4-3      c-1.2-2.6-3.9-2.3-7-3C645.3,434.7,618.9,462.2,618.9,462.2z"
             id="path234" /><path
             class="st19"
             d="M648.8,453.9c18.8-6.7,39.3-4.1,40.9-2.5l0.1,0c0,0,0,0.1,0,0.1c0,0,0,0,0,0l0,0      c6.5,14.6-3.6,31.9-22.8,38.8s-40.1,0.7-46.8-13.8l0,0c0,0,0,0,0,0c0,0,0-0.1-0.1-0.1l0.1,0C620.1,474.3,630,460.7,648.8,453.9z      "
             id="path236" /></g><path
           class="st20"
           d="M662.9,479.7c-5.5,2-9.2,5.3-8.2,7.3c0.9,2.1,6.2,2.1,11.7,0.2c5.5-2,9.2-5.3,8.2-7.3     S668.4,477.7,662.9,479.7z"
           id="path240" /></g><g
         id="g246"><path
           class="st21"
           d="M696.9,385.5c0,0,8,4.2,15.5,12.4s-4.2,69.3-18.8,76.5s-29.5,7.8-29.5,7.8l3.8,0.8c0,0,17.8-0.9,29.5-7.8     c11.7-6.9,25.8-66.7,18.7-76.4c-7.1-9.7-19-15.2-19-15.2L696.9,385.5z"
           id="path244" /></g><g
         id="g252"><g
           id="g250"><path
             class="st19"
             d="M663.8,391.1c-9.9-13.7-11.4-30.1-10.1-31.5l0-0.1c0,0,0.1,0,0.1-0.1c0,0,0,0,0,0l0,0      c12.5-7.2,30.8-1.9,40.9,12.1c10.1,13.9,8.3,31.2-4.1,38.6l0,0c0,0,0,0,0,0c0,0-0.1,0-0.1,0.1l0-0.1      C688.4,410.5,673.7,404.7,663.8,391.1z"
             id="path248" /></g></g><path
         class="st20"
         d="M649,362.3c-6,3.6-2.6,17.6,7.6,31.1c10.2,13.5,23.3,21.6,29.2,17.9s2.6-17.6-7.6-31.1    C668.1,366.7,655,358.7,649,362.3z"
         id="path254" /><path
         class="st22"
         d="M656.6,376.7c-2.2,1.3-0.3,7.4,4.3,13.5c4.6,6.1,10.1,10,12.3,8.6c2.2-1.3,0.3-7.4-4.3-13.5    C664.3,379.3,658.8,375.4,656.6,376.7z"
         id="path256" /><path
         class="st18"
         d="M663.7,359.4c0,0,30.7,17.1,29.6,44.8c-0.1,2.5,0.7,4.4-1.6,5.6l-2.6,1.3c-1,0.5-4.2,1.1-5.2,1    c1.2-1.7,2.2-17.7-7.3-31c-9.5-13.3-25.4-18.9-27.7-18.8c0.4-0.8,2.6-2.1,3.6-2.6l2.6-1.3C657.5,357.2,661.5,358,663.7,359.4z"
         id="path258" /></g><g
       id="g264"><path
         class="st14"
         d="M710.8,196.1C706,256.3,595,304.8,457,306.9v170C651.9,473,711,348.7,711,196C711,196,710.9,196,710.8,196.1    z"
         id="path262" /></g><g
       id="g290"><g
         id="g288"><path
           class="st8"
           d="M342.2,413.5c-0.5,0.7-0.8,1-1.4,1.7c-4.1,0.7-8.4,0.6-12.8-0.4c-6.2-1.4-11-4.1-14.1-7.8     c-3.1-3.7-4.1-7.7-2.9-12.1c0.8-3,2.5-5.3,4.9-7.1c2.4-1.7,5.3-2.8,8.6-3.1c3.3-0.4,6.8-0.1,10.5,0.8c2.2,0.5,4.3,1.2,6.3,2     s3.7,1.6,5.1,2.5c0.1,0.1,0.1,0.1,0.1,0.2c-0.5,0.7-1.3,2.4-2.2,5.3c-0.1,0-0.1,0.1-0.2,0.1c-0.5-0.1-0.7-0.1-1.2-0.2     c-0.1-0.1-0.1-0.1-0.2-0.2c0.2-1.4,0.3-2.1,0.5-3.4c-1-1-2.4-1.9-4-2.7c-1.6-0.8-3.3-1.4-5.1-1.8c-2.8-0.6-5.3-0.8-7.8-0.3     c-2.4,0.4-4.5,1.4-6.2,2.9c-1.7,1.5-2.9,3.5-3.6,6.2c-0.7,2.6-0.6,5.1,0.4,7.5c1,2.4,2.6,4.4,4.9,6.1c2.3,1.7,5.2,3,8.7,3.7     c1.5,0.3,3,0.6,4.5,0.6c1.5,0.1,2.7,0.1,3.7-0.1c1-0.1,2-0.4,2.9-0.7C342,413.2,342.1,413.3,342.2,413.5z"
           id="path266" /><path
           class="st8"
           d="M351.1,404.7c-0.4-0.2-0.6-0.2-1-0.4c-0.1-0.1-0.1-0.1-0.2-0.2c0.2-1,0.3-1.5,0.5-2.5     c3.3-1.2,6.4-1.5,9.2-1.1c1.9,0.3,3.5,0.9,4.7,1.7c1.2,0.8,2,1.7,2.4,2.6c0.4,1,0.6,2,0.4,3.2c-0.3,1.6-0.5,2.4-0.8,4     c-0.4,2.4-0.6,3.6-0.9,6c-0.1,0.8-0.1,1.3,0,1.5c0.1,0.2,0.3,0.3,0.5,0.4c0.2,0.1,0.5,0.2,1,0.3c0.6,0.1,0.9,0.2,1.5,0.3     c0.1,0.1,0.1,0.1,0.2,0.2c0,0.3-0.1,0.5-0.1,0.8c-0.1,0.1-0.1,0.1-0.2,0.1c-1.3-0.3-2.4-0.5-3.5-0.7c-1-0.2-2.3-0.3-3.8-0.5     c-0.1-0.1-0.2-0.2-0.3-0.3c0.3-1.3,0.4-1.9,0.6-3.2c-2.5,1-3.7,1.5-6.3,2.4c-1,0.1-2.1,0.1-3.2-0.1c-1.4-0.3-2.6-0.7-3.5-1.2     c-0.9-0.6-1.6-1.3-2-2.1c-0.4-0.8-0.5-1.7-0.3-2.7c0.4-2,1.5-3.3,3.3-4.1c1.8-0.8,6.2-0.9,13.3-0.5c0.3-2,0-3.5-1-4.5     c-1-1-2.4-1.7-4.3-2c-1-0.2-1.9-0.2-2.7-0.1c-0.8,0.1-1.3,0.2-1.5,0.3c-0.1,0.1-0.7,0.9-1.8,2.2     C351.2,404.7,351.2,404.7,351.1,404.7z M362.4,410c-4.9-0.2-8,0-9.3,0.5c-1.3,0.5-2.1,1.5-2.4,3c-0.4,2.1,0.8,3.4,3.4,3.9     c2.3,0.4,4.8-0.2,7.4-1.9C361.8,413.2,362,412.2,362.4,410z"
           id="path268" /><path
           class="st8"
           d="M381.2,403.9c0.2,0.1,0.3,0.2,0.4,0.3c-0.2,0.9-0.4,2.1-0.7,3.5c1.5-0.7,2.9-1.5,4.2-2.2     c0.4-0.2,0.7-0.4,1.1-0.4c0.3-0.1,0.9-0.1,1.6-0.2c0.7,0,1.5,0,2.2,0.1c1.3,0.1,2.5,0.5,3.7,1c1.2,0.5,2,1.1,2.6,1.8     c0.6,0.6,0.9,1.4,1.1,2.2c0.2,0.8,0.2,1.8,0.1,2.9c-0.1,1.4-0.2,2.1-0.3,3.6c0,0.2-0.1,1.9-0.4,5.1c-0.1,1.3,0,2.1,0.3,2.3     c0.3,0.3,1.4,0.5,3.2,0.7c0.1,0.1,0.1,0.1,0.2,0.2c0,0.3,0,0.5-0.1,0.9c-0.1,0.1-0.1,0.1-0.2,0.1c-2.2-0.3-3.7-0.5-4.5-0.6     c-0.5,0-1.7-0.1-3.9-0.2c-0.1-0.1-0.2-0.2-0.3-0.3c0.4-1.7,0.8-4,1.1-6.8c0.1-1.1,0.2-1.6,0.3-2.7c0.2-1.6,0.2-2.7,0.2-3.5     c0-0.7-0.2-1.4-0.7-2c-0.4-0.6-1-1.1-1.8-1.5c-0.8-0.4-1.7-0.7-2.8-0.8c-0.9-0.1-1.6-0.1-2.3-0.1c-0.6,0.1-1.4,0.3-2.2,0.6     c-0.8,0.3-1.5,0.7-1.9,1c-0.4,0.3-0.7,0.7-0.8,1c-0.1,0.3-0.2,1-0.4,2.1c-0.2,1.4-0.3,2.1-0.5,3.5c0,0.3-0.1,1.3-0.3,2.9     c-0.1,1.6-0.2,2.6-0.1,2.8c0,0.3,0.1,0.5,0.3,0.6c0.1,0.1,0.3,0.2,0.5,0.3c0.2,0.1,1.2,0.2,2.8,0.5c0.1,0.1,0.1,0.1,0.2,0.2     c0,0.3-0.1,0.5-0.1,0.8c-0.1,0.1-0.1,0.1-0.2,0.2c-2.2-0.4-4.3-0.7-6.3-1c-2-0.3-4.1-0.5-6.3-0.7c-0.1-0.1-0.1-0.1-0.2-0.2     c0-0.3,0.1-0.5,0.1-0.8c0.1-0.1,0.2-0.1,0.3-0.1c1.7,0.2,2.7,0.2,2.9,0.2c0.2,0,0.4-0.1,0.6-0.2c0.2-0.1,0.3-0.3,0.4-0.5     c0.1-0.3,0.3-1.1,0.6-2.6c0.3-1.5,0.5-2.6,0.6-3.3c0.2-1.6,0.3-2.4,0.6-4c0.1-0.5,0.1-1.3,0.2-2.2c0.1-0.9,0.1-1.5,0.1-1.7     c0-0.2-0.1-0.4-0.3-0.5c-0.2-0.1-0.6-0.2-1.3-0.3c-0.9-0.1-1.3-0.2-2.1-0.3c-0.1-0.1-0.1-0.1-0.2-0.2c0.1-0.3,0.1-0.5,0.1-0.9     c0.1-0.1,0.1-0.1,0.2-0.1C376.1,404.4,378.9,404.3,381.2,403.9z"
           id="path270" /><path
           class="st8"
           d="M424,424.9c-0.4,0.5-0.7,0.8-1.1,1.3c-2.3,0.9-4.9,1.2-7.7,1c-3.9-0.2-6.8-1.3-8.8-3.3     c-2-1.9-2.8-4.3-2.6-7.1c0.1-1.3,0.4-2.4,0.8-3.4c0.4-1,0.9-1.8,1.5-2.4c0.6-0.6,1.2-1.1,1.9-1.4s1.8-0.8,3.4-1.3     c1.6-0.6,2.8-0.9,3.6-1.1c0.8-0.2,1.9-0.2,3.2-0.1c2.6,0.1,4.8,0.7,6.4,1.5c-0.4,1.5-0.7,3.2-1,5.1c-0.1,0.1-0.1,0.1-0.2,0.2     c-0.4,0-0.6,0-1.1,0c-0.1-0.1-0.1-0.1-0.2-0.2c0-1.1-0.1-1.9-0.2-2.3c-0.1-0.4-0.8-0.9-2-1.4c-1.2-0.5-2.5-0.8-3.9-0.9     c-1.4-0.1-2.6,0.1-3.8,0.5c-1.1,0.4-2,1.1-2.6,2.1c-0.6,1-1,2.3-1.1,3.7c-0.1,1.2,0,2.5,0.4,3.7c0.4,1.2,0.9,2.2,1.6,3.1     c0.7,0.8,1.6,1.5,2.8,2.1c1.2,0.6,2.5,0.9,4.1,1c0.9,0.1,1.9,0,2.8-0.1c0.9-0.1,2-0.4,3.2-0.8C423.7,424.6,423.8,424.7,424,424.9     z"
           id="path272" /><path
           class="st8"
           d="M427.1,417.9c0.1-1.6,0.5-3.2,1.4-4.6c0.9-1.5,2.4-2.7,4.5-3.7c2.1-1,4.5-1.5,7.4-1.5c3.6,0,6.4,1,8.7,2.7     c2.3,1.8,3.4,4.1,3.4,6.9c0,3.1-1.3,5.7-3.9,7.7c-2.6,2-5.9,3-9.7,2.9c-2.5,0-4.7-0.6-6.6-1.7c-1.9-1.1-3.3-2.4-4.1-3.9     C427.4,421.2,427,419.6,427.1,417.9z M432.1,416.6c-0.1,1.9,0.2,3.6,0.8,5.1c0.6,1.5,1.5,2.7,2.9,3.7c1.3,0.9,2.9,1.4,4.7,1.4     c2.1,0,3.8-0.6,5.1-1.9c1.4-1.3,2-3.2,2-5.7c0-2.9-0.7-5.3-2.1-7.1c-1.4-1.9-3.5-2.8-6.1-2.8c-2.2,0-3.9,0.6-5.2,1.8     C432.8,412.4,432.1,414.2,432.1,416.6z"
           id="path274" /><path
           class="st8"
           d="M463.7,407.9c0.2,0.1,0.3,0.1,0.5,0.2c-0.1,1.8-0.1,4-0.1,6.8c0.1,1.8,0.1,2.8,0.1,4.6     c0,0.3,0.1,1.3,0.2,2.9c0.1,1.6,0.2,2.6,0.3,2.8c0.1,0.3,0.2,0.5,0.4,0.6c0.2,0.1,0.4,0.2,0.6,0.2c0.2,0,1.2,0.1,2.8,0.1     c0.1,0.1,0.1,0.1,0.2,0.2c0,0.3,0,0.5,0,0.9c-0.1,0.1-0.1,0.1-0.2,0.2c-2.2,0-4.3,0-6.4,0.1c-2,0.1-4.1,0.2-6.3,0.3     c-0.1-0.1-0.1-0.1-0.2-0.2c0-0.3,0-0.5,0-0.9c0.1-0.1,0.1-0.1,0.2-0.2c1.7-0.1,2.7-0.2,2.9-0.2c0.2,0,0.4-0.1,0.6-0.3     c0.2-0.1,0.3-0.3,0.3-0.6c0.1-0.3,0.1-1.1,0.1-2.6c0-1.5,0.1-2.6,0-3.4c0-1.6-0.1-2.4-0.1-4c0-0.5-0.1-1.3-0.2-2.2     c-0.1-0.9-0.2-1.5-0.2-1.7c0-0.2-0.2-0.4-0.4-0.5c-0.2-0.1-0.7-0.1-1.3-0.1c-0.9,0-1.3,0-2.1,0c-0.1-0.1-0.1-0.1-0.2-0.2     c0-0.4,0-0.5,0-0.9c0.1-0.1,0.1-0.1,0.2-0.2C458.8,409.3,461.5,408.7,463.7,407.9z M461.3,398.9c0.8,0,1.5,0.2,2,0.6     c0.6,0.4,0.9,1,0.9,1.6c0,0.6-0.2,1.2-0.8,1.6c-0.5,0.5-1.2,0.7-2,0.7c-0.8,0-1.4-0.2-2-0.6c-0.6-0.4-0.9-1-0.9-1.6     c0-0.6,0.3-1.2,0.8-1.6C459.8,399.1,460.5,398.9,461.3,398.9z"
           id="path276" /><path
           class="st8"
           d="M478.2,396.5c0.2,0.1,0.3,0.1,0.5,0.2c-0.1,1.6,0,4.7,0.3,9.4c0.3,5.1,0.5,7.6,0.8,12.7     c0,0.3,0.1,1.3,0.3,2.9c0.2,1.6,0.3,2.6,0.4,2.8c0.1,0.3,0.2,0.5,0.4,0.6s0.4,0.2,0.6,0.2c0.2,0,1.2,0,2.9,0     c0.1,0.1,0.1,0.1,0.2,0.1c0,0.3,0,0.5,0.1,0.9c-0.1,0.1-0.1,0.1-0.2,0.2c-2.2,0-4.3,0.1-6.4,0.2c-2,0.1-4.1,0.3-6.3,0.5     c-0.1-0.1-0.1-0.1-0.2-0.2c0-0.3,0-0.5,0-0.9c0.1-0.1,0.1-0.1,0.2-0.2c1.7-0.2,2.7-0.3,2.9-0.3c0.2-0.1,0.4-0.1,0.6-0.3     c0.2-0.1,0.3-0.3,0.3-0.6c0-0.3,0.1-1.1,0.1-2.6c0-1.5,0-2.6-0.1-3.4c-0.2-4.2-0.3-6.3-0.6-10.5c-0.1-1.7-0.2-2.6-0.3-4.3     c-0.1-1.5-0.2-2.5-0.3-3.1c-0.1-0.6-0.2-0.9-0.3-1c-0.1-0.1-0.3-0.2-0.5-0.2c-0.3,0-1.3,0-3,0.1c-0.1-0.1-0.1-0.1-0.2-0.2     c0-0.3,0-0.5,0-0.9c0.1-0.1,0.1-0.1,0.2-0.2C473.4,398,476.1,397.3,478.2,396.5z"
           id="path278" /><path
           class="st8"
           d="M493,395.3c0.2,0.1,0.3,0.1,0.5,0.2c0,1.6,0.2,4.7,0.6,9.4c0.5,5.1,0.7,7.6,1.2,12.7c0,0.3,0.1,1.3,0.4,2.9     c0.2,1.6,0.4,2.5,0.5,2.8c0.1,0.3,0.2,0.4,0.4,0.6s0.4,0.2,0.6,0.2c0.2,0,1.2,0,2.8-0.1c0.1,0.1,0.2,0.1,0.3,0.1     c0,0.3,0.1,0.5,0.1,0.9c-0.1,0.1-0.1,0.1-0.2,0.2c-2.2,0.1-4.3,0.3-6.4,0.4c-2,0.2-4.1,0.4-6.3,0.7c-0.1-0.1-0.2-0.1-0.3-0.2     c0-0.3,0-0.5-0.1-0.9c0.1-0.1,0.1-0.1,0.2-0.2c1.7-0.2,2.6-0.3,2.9-0.4c0.2-0.1,0.4-0.2,0.6-0.3c0.2-0.1,0.3-0.3,0.3-0.6     c0-0.3,0-1.1,0-2.6c0-1.5-0.1-2.6-0.2-3.4c-0.4-4.2-0.5-6.3-0.9-10.5c-0.2-1.7-0.3-2.6-0.5-4.3c-0.2-1.5-0.3-2.5-0.4-3.1     c-0.1-0.6-0.2-0.9-0.3-1c-0.1-0.1-0.3-0.2-0.5-0.2c-0.3,0-1.3,0-3,0.2c-0.1-0.1-0.1-0.1-0.2-0.2c0-0.3,0-0.5-0.1-0.9     c0.1-0.1,0.1-0.1,0.2-0.2C488.2,397,490.9,396.2,493,395.3z"
           id="path280" /><path
           class="st8"
           d="M502.4,415.4c-0.2-1.6,0.1-3.2,0.8-4.8c0.7-1.6,2-3,3.9-4.4c1.9-1.3,4.3-2.2,7.1-2.5c3.5-0.5,6.5,0,9,1.5     c2.5,1.4,4,3.6,4.4,6.3c0.5,3.1-0.4,5.8-2.8,8.2c-2.3,2.4-5.4,3.8-9.1,4.3c-2.5,0.3-4.7,0.1-6.7-0.7c-2-0.8-3.6-1.9-4.7-3.3     C503.2,418.6,502.5,417.1,502.4,415.4z M507.1,413.4c0.2,1.9,0.7,3.5,1.5,5c0.8,1.4,1.9,2.5,3.4,3.2c1.5,0.7,3.1,1,4.8,0.8     c2.1-0.3,3.7-1.1,4.8-2.6c1.2-1.4,1.5-3.4,1.2-6c-0.4-2.9-1.5-5.1-3.1-6.7c-1.7-1.6-3.8-2.3-6.5-1.9c-2.2,0.3-3.8,1.1-4.9,2.5     C507.2,409.1,506.8,411,507.1,413.4z"
           id="path282" /><path
           class="st8"
           d="M559.7,397.3c0,0.7-0.1,1.1-0.1,1.8c-0.1,0.1-0.1,0.1-0.2,0.2c-0.9,0.2-1.8,0.4-2.8,0.6     c-0.9,0.2-2.1,0.5-3.6,0.8c0.6,3.3,0.9,4.9,1.5,8.1c0.4,2,0.8,3.2,1,3.8c0.3,0.5,0.7,0.9,1.3,1.1c0.6,0.2,1.3,0.2,2.2,0     c1.2-0.2,2.2-0.7,3-1.4c0.3,0.2,0.5,0.3,0.8,0.6c-0.4,0.3-1.2,1.2-2.5,2.6c-0.8,0.5-1.7,0.9-2.6,1.1c-3.9,0.8-6.1-0.2-6.7-3.1     c-0.2-1.4-0.3-2.1-0.6-3.4c-0.7-3.4-1-5-1.7-8.4c-4.4,0.9-6.6,1.3-11,2.1c0.5,3.3,0.8,4.9,1.3,8.2c0.4,2,0.7,3.3,0.9,3.8     c0.2,0.5,0.7,0.9,1.2,1.1c0.6,0.2,1.3,0.2,2.2,0c1.2-0.2,2.2-0.6,3.1-1.3c0.3,0.2,0.5,0.4,0.8,0.6c-0.4,0.3-1.2,1.2-2.6,2.6     c-0.8,0.5-1.7,0.8-2.7,1c-3.9,0.7-6.1-0.4-6.6-3.4c-0.2-1.4-0.3-2.1-0.5-3.5c-0.6-3.3-0.8-5-1.4-8.3c-0.4,0.1-0.6,0.1-1,0.2     c-0.8,0.1-1.6,0.3-2.6,0.5c-0.1,0-0.2-0.1-0.3-0.1c0-0.2-0.1-0.3-0.1-0.5c0.1-0.1,0.1-0.1,0.1-0.2c1.5-0.7,3.4-1.5,3.6-1.9     c0.6-1.4-1-5.5-1.2-6.1c1.6-0.8,2.9-1.5,3.9-2.3c0.3,0.1,0.4,0.2,0.7,0.3c0,0.9,0.2,3.3,0.7,7.3c4.4-0.8,6.6-1.2,11-2.1     c-0.8-3.8-1.2-5.8-1.3-6.1c1.6-0.8,2.9-1.6,3.9-2.4c0.3,0.1,0.4,0.2,0.7,0.3c0,0.9,0.3,3.3,0.9,7.4c0.8-0.2,1.7-0.3,2.7-0.6     c2-0.4,3.4-0.8,4.2-1C559.5,397.2,559.6,397.2,559.7,397.3z"
           id="path284" /><path
           class="st8"
           d="M586,406.1c-0.2,0.7-0.3,1-0.4,1.6c-1.5,1.4-3,2.3-4.3,3c-1.3,0.6-2.5,1.1-3.7,1.4c-2.1,0.5-4.1,0.7-6.1,0.5     c-2-0.2-3.8-0.9-5.3-2.1c-1.5-1.2-2.5-2.9-3-5c-0.3-1.4-0.4-2.7-0.2-3.9c0.2-1.2,0.4-2.2,0.8-2.8c0.4-0.7,1-1.4,2-2.4     c1-0.9,2-1.7,3.2-2.4c1.2-0.7,2.5-1.2,3.9-1.6c2-0.5,3.8-0.6,5.5-0.2c1.7,0.3,3,1,4,2c0.9,1,1.6,2.1,1.9,3.4     c0.1,0.4,0.2,0.8,0.2,1.2c-0.1,0.1-0.1,0.2-0.2,0.3c-1.1,0.5-2.6,1.1-4.5,1.6c-1.9,0.6-3.2,0.9-3.8,1.1c-3.2,0.8-4.9,1.2-8.1,2     c0.7,2.7,2,4.5,4.1,5.4c2.1,0.9,4.4,1,6.9,0.3c1.2-0.3,2.3-0.8,3.3-1.4c1-0.6,2.1-1.4,3.1-2.3C585.7,405.9,585.8,406,586,406.1z      M567.7,402.2c0.1,0.1,1.5-0.3,3.5-0.7c2-0.4,3.6-0.8,4.5-1c2.3-0.6,3.7-1,4.2-1.2c-0.1-0.3-0.1-0.6-0.2-0.7     c-0.5-2-1.5-3.4-2.8-4.1s-2.9-0.8-4.7-0.4c-2,0.5-3.4,1.4-4.2,2.8C567.3,398.2,567.1,401.8,567.7,402.2z"
           id="path286" /></g></g><g
       id="g294"><path
         class="st23"
         d="M435.5,209c2.1,1.4,3.3,3,3.3,4.7c0,6.1-15.6,11.1-34.7,11.1s-34.7-5-34.7-11.1c0-2.6,2.7-4.9,7.2-6.8    c-6.5,2.1-10.6,5-10.6,8.2c0,6.5,16.8,11.8,37.5,11.8s37.5-5.3,37.5-11.8C441,212.9,439,210.8,435.5,209z"
         id="path292" /></g><g
       id="g298"><path
         class="st23"
         d="M444.8,209.9c2.8,2.1,4.3,4.4,4.3,6.9c0,8.9-20.1,16.1-44.9,16.1c-24.8,0-44.9-7.2-44.9-16.1    c0-3.7,3.5-7.1,9.4-9.8c-8.4,3.1-13.7,7.3-13.7,11.9c0,9.4,21.7,17.1,48.5,17.1s48.5-7.7,48.5-17.1    C452,215.6,449.4,212.5,444.8,209.9z"
         id="path296" /></g><g
       id="g304"><g
         id="g302"><path
           class="st23"
           d="M608.3,283.1c3.1-1,6.2-2.1,9.2-3.2c-100.6,2.5-177.7-9.3-179.9-29.1c-1.1-9.7,16-19.8,45.4-28.7     c-36.4,9.7-58.2,21.1-57,32C428.2,274.1,506.5,285.9,608.3,283.1z"
           id="path300" /></g></g><g
       id="g310"><g
         id="g308"><path
           class="st23"
           d="M606.8,268.9c15.2-0.8,29.8-2,43.6-3.6c1.1-0.6,2.2-1.2,3.3-1.8c-12.4,1.3-25.4,2.3-38.9,3.1     c-84,4.5-153.4-5.4-154.9-22c-0.6-7.1,11.2-14.3,31.6-20.5c-25.2,6.7-40.3,14.8-39.6,22.8C453.5,263.5,522.8,273.4,606.8,268.9z"
           id="path306" /></g></g><g
       id="g314"><path
         class="st24"
         d="M699.8,213.6C675.8,263.5,572,301,447.5,301C305.3,301,190,252,190,191.5C190,131,305.3,82,447.5,82    c39.7,0,77.3,3.8,110.9,10.6c2.9-1.3,6-2.3,9.3-3c-36-8.1-76.9-12.6-120.2-12.6C302,77,184,128.5,184,192s118,115,263.5,115    S711,255.5,711,192c0-0.1,0-0.3,0-0.4C707.8,199.3,703.9,206.5,699.8,213.6z"
         id="path312" /></g><path
       class="st12"
       d="M614.7,241c9.4,14.7,30.7,43.3,38.6,39.3c7.6-3.9-1.9-27.6-13.4-42.3"
       id="path316" /><g
       id="g326"><path
         class="st25"
         d="M297.3,273.9c0,0,1,20.1,0.6,28.7c-0.5,8.6,8,3.5,7.9,17.1c-0.1,13.6-5.4,10.8-8.6,17.3s-6.3,37.5-6.3,37.5    s2.7,5.9,11.7,11.5c9,5.6,23.6,9.1,36.4,9.1c12.8-0.1,22-2.4,24.4-3.8c2.3-1.4,6.3-6.1,7.9-9.7c1.6-3.6,5.8-34,6.3-51.5    c0.5-17.5-1.7-33.7-1.7-33.7L297.3,273.9z"
         id="path318" /><path
         class="st13"
         d="M296.7,273.8c0,0,1.7,20.1,1.2,28.7c-0.5,8.6,8,3.5,7.9,17.1c-0.1,13.6-5.4,10.8-8.6,17.3    s-6.3,37.5-6.3,37.5s2.7,5.9,11.7,11.5c9,5.6,23.6,9.1,36.4,9.1c12.8-0.1,22-2.4,24.4-3.8c2.3-1.4,6.3-6.1,7.9-9.7    c1.6-3.6,5.8-34,6.3-51.5c0.5-17.5-0.2-43.5-0.2-43.5L296.7,273.8z"
         id="path320" /><path
         class="st26"
         d="M374.8,362.1c-37.8,2.7-80.9-10.7-80.9-10.7s1.1-11.7,4.1-15.8c38.6,13.7,78.2,11.5,78.2,11.5    C376.5,352.6,375.9,356.9,374.8,362.1z"
         id="path322" /><path
         class="st26"
         d="M369.1,385.1c-37.8,2.7-78.2-11.1-78.2-11.1s0.3-11.3,2-16.2c38.6,13.7,80.5,12.4,80.5,12.4    C372.8,376.1,371.7,382,369.1,385.1z"
         id="path324" /></g><g
       id="g334"><path
         class="st25"
         d="M404.3,292.3c0,0-1.2,2.6-1.4,11.3c-0.2,8.6-0.5-0.4-1.5,13.1c-1,13.5,2.6,2.9,5.3,9.6s2.8,35.9,2.8,35.9    s-3.2,5.7-12.7,10.5c-9.5,4.9-24.6,7.2-37.5,6.1s-22-4.2-24.3-5.8c-2.2-1.6-5.9-6.5-7.2-10.3c-1.3-3.8-3.1-34.4-2.1-51.8    c0.9-17.4,4.5-33.4,4.5-33.4L404.3,292.3z"
         id="path328" /><path
         class="st26"
         d="M324.8,343.1c37.9,5.7,82.6-4.1,82.6-4.1s-0.2-11.8-2.9-16.1c-40.1,10.5-79.9,5-79.9,5    C323.8,333.5,324,337.9,324.8,343.1z"
         id="path330" /><path
         class="st26"
         d="M328.7,366.5c37.9,5.7,79.9-4.6,79.9-4.6s0.6-11.3-0.7-16.3c-40.1,10.5-82.3,5.8-82.3,5.8    C325.6,357.3,326.2,363.2,328.7,366.5z"
         id="path332" /></g><g
       id="g342"><path
         class="st6"
         d="M104.3,376.5c1.5,1.3,1.9,2.7,0.5,4c-1.4,1.3-3.8,1.3-5.3,0c-1.5-1.3-1.6-3.5-0.1-4.8    C100.8,374.4,102.8,375.2,104.3,376.5z"
         id="path336" /><g
         id="g340"><path
           class="st6"
           d="M128.6,367.3c-7.3-1.8-14.9,1.2-19.2,7.8c-1.1,1.7-2.7,2.1-4,0.6l0,0c-1.3-1.6-1.7-4.5-0.3-6.1     c5.2-6.2,13.7-8.7,21.5-6c2.1,0.7,4.1,2.5,4.5,3.4l0,0C131.6,367.9,130.5,367.7,128.6,367.3z"
           id="path338" /></g></g></g></svg>